<svg width="42" height="35" viewBox="0 0 42 35" fill="none" xmlns="http://www.w3.org/2000/svg">
<path fill-rule="evenodd" clip-rule="evenodd" d="M2.2086 20.8488C0.579876 18.9693 0.579876 16.1788 2.20863 14.2995L12.6504 2.25124C15.6817 -1.24648 21.4288 0.897368 21.4288 5.52589V10.0741H36.4288C39.1903 10.0741 41.4288 12.3126 41.4288 15.074V20.074C41.4288 22.8355 39.1903 25.074 36.4288 25.074H21.4288V29.6223C21.4288 34.2508 15.6817 36.3945 12.6504 32.8968L2.2086 20.8488ZM7.40608 15.9368C6.5917 16.8763 6.5917 18.2718 7.40608 19.2113L16.4288 29.6223V23.824C16.4288 21.753 18.1078 20.074 20.1788 20.074H36.4288V15.074H20.1788C18.1078 15.074 16.4288 13.395 16.4288 11.3241V5.52589L7.40608 15.9368Z" fill="#7657CC"/>
</svg>
