<svg width="61" height="61" viewBox="0 0 61 61" fill="none" xmlns="http://www.w3.org/2000/svg">
<path fill-rule="evenodd" clip-rule="evenodd" d="M48.4871 58.074H28.4871C27.1063 58.074 25.9871 56.9547 25.9871 55.574C25.9871 54.1932 27.1063 53.074 28.4871 53.074H48.4871C49.8678 53.074 50.9871 51.9547 50.9871 50.574V10.574C50.9871 9.19327 49.8678 8.07397 48.4871 8.07397H28.4871C27.1063 8.07397 25.9871 6.9547 25.9871 5.57397C25.9871 4.19327 27.1063 3.07397 28.4871 3.07397H48.4871C52.6293 3.07397 55.9871 6.43185 55.9871 10.574V50.574C55.9871 54.7162 52.6293 58.074 48.4871 58.074Z" fill="#7657CC"/>
<path fill-rule="evenodd" clip-rule="evenodd" d="M7.2086 33.8488C5.57988 31.9693 5.57988 29.1788 7.20863 27.2995L17.6504 15.2512C20.6817 11.7535 26.4288 13.8974 26.4288 18.5259V23.0741H41.4288C44.1903 23.0741 46.4288 25.3126 46.4288 28.074V33.074C46.4288 35.8355 44.1903 38.074 41.4288 38.074H26.4288V42.6223C26.4288 47.2508 20.6817 49.3945 17.6504 45.8968L7.2086 33.8488ZM12.4061 28.9368C11.5917 29.8763 11.5917 31.2718 12.4061 32.2113L21.4288 42.6223V36.824C21.4288 34.753 23.1078 33.074 25.1788 33.074H41.4288V28.074H25.1788C23.1078 28.074 21.4288 26.395 21.4288 24.3241V18.5259L12.4061 28.9368Z" fill="#7657CC"/>
</svg>
