<svg width="200" height="200" viewBox="0 0 200 200" fill="none" xmlns="http://www.w3.org/2000/svg">
<path d="M100 0C44.7657 0 0 44.7522 0 100C0 155.221 44.7657 199.993 100 199.993C155.234 199.993 200 155.221 200 100C199.993 44.7522 155.228 0 100 0ZM100 183.681C53.7649 183.681 16.2988 146.222 16.2988 99.9932C16.2988 53.7581 53.7649 16.2852 100 16.2852C146.222 16.2852 183.688 53.7649 183.688 99.9932C183.688 146.222 146.222 183.681 100 183.681Z" fill="#7657CC"/>
<path d="M97.4065 130.938C88.3463 130.938 81.9067 137.378 81.9067 146.784C81.9067 155.83 88.1771 162.622 97.4065 162.622C106.981 162.622 113.075 155.83 113.075 146.784C112.893 137.378 106.792 130.938 97.4065 130.938Z" fill="#7657CC"/>
<path d="M99.824 41.2515C87.473 41.2515 77.2075 44.7252 70.7544 48.3817L76.6794 67.3687C81.2027 64.2404 88.1704 62.1412 93.9126 62.1412C102.614 62.3241 106.636 66.502 106.636 72.5895C106.636 78.3452 102.099 84.0806 96.5196 90.879C88.6918 100.115 85.726 109.169 86.2541 118.046L86.4234 122.576H109.582V119.441C109.412 111.6 112.202 104.801 118.459 97.6707C125.088 90.3576 133.43 81.6496 133.43 68.4115C133.43 53.9546 122.826 41.2515 99.824 41.2515Z" fill="#7657CC"/>
</svg>
