<svg width="364" height="273" viewBox="0 0 364 273" fill="none" xmlns="http://www.w3.org/2000/svg">
<path d="M59 149L72.2463 187.695H115.112L80.433 211.61L93.6793 250.305L59 226.39L24.3207 250.305L37.567 211.61L2.88766 187.695H45.7537L59 149Z" fill="#CC8257"/>
<path d="M246 0L259.246 38.695H302.112L267.433 62.6099L280.679 101.305L246 77.3901L211.321 101.305L224.567 62.6099L189.888 38.695H232.754L246 0Z" fill="#CC8257"/>
<path d="M118 0L131.246 38.695H174.112L139.433 62.6099L152.679 101.305L118 77.3901L83.3207 101.305L96.567 62.6099L61.8877 38.695H104.754L118 0Z" fill="#CC8257"/>
<path d="M305 149L318.246 187.695H361.112L326.433 211.61L339.679 250.305L305 226.39L270.321 250.305L283.567 211.61L248.888 187.695H291.754L305 149Z" fill="#CC8257"/>
<path d="M182 26L209.615 111.336L298.98 111.336L226.682 164.077L254.298 249.414L182 196.673L109.702 249.414L137.318 164.077L65.0201 111.336L154.385 111.336L182 26Z" fill="#7657CC"/>
</svg>
